name rise38.3101peak57.3503fall81.6963.mot
datacolumns 19
datarows 15
range 7.72331200000000 7.74663800000000
endheader
time	ground_force1_vx	ground_force1_vy	ground_force1_vz	ground_force1_px	ground_force1_py	ground_force1_pz	ground_force2_vx	ground_force2_vy	ground_force2_vz	ground_force2_px	ground_force2_py	ground_force2_pz	ground_torque1_x	ground_torque1_y	ground_torque1_z	ground_torque2_x	ground_torque2_y	ground_torque2_z	
7.72331200000000	58.46261100000000	770.91920600000003	57.88321100000000	0.33672300000000	0.00000000000000	0.11776500000000	0.00000000000000	0.00000000000000	0.00000000000000	0.00000000000000	0.00000000000000	0.00000000000000	0.00000000000000	24.15002200000000	0.00000000000000	0.00000000000000	0.00000000000000	0.00000000000000	
7.72497800000000	57.65339700000000	773.25981600000000	58.04867700000000	0.33557900000000	0.00000000000000	0.11774100000000	0.00000000000000	0.00000000000000	0.00000000000000	0.00000000000000	0.00000000000000	0.00000000000000	0.00000000000000	24.28919300000000	0.00000000000000	0.00000000000000	0.00000000000000	0.00000000000000	
7.72664500000000	56.85183300000000	775.47208999999998	58.21682200000000	0.33446200000000	0.00000000000000	0.11771700000000	0.00000000000000	0.00000000000000	0.00000000000000	0.00000000000000	0.00000000000000	0.00000000000000	0.00000000000000	24.43059800000000	0.00000000000000	0.00000000000000	0.00000000000000	0.00000000000000	
7.72830900000000	56.05861500000000	777.55369099999996	58.38721300000000	0.33337100000000	0.00000000000000	0.11769300000000	0.00000000000000	0.00000000000000	0.00000000000000	0.00000000000000	0.00000000000000	0.00000000000000	0.00000000000000	24.57388000000000	0.00000000000000	0.00000000000000	0.00000000000000	0.00000000000000	
7.72997600000000	55.27434900000000	779.50243100000000	58.55931700000000	0.33230500000000	0.00000000000000	0.11766900000000	0.00000000000000	0.00000000000000	0.00000000000000	0.00000000000000	0.00000000000000	0.00000000000000	0.00000000000000	24.71862800000000	0.00000000000000	0.00000000000000	0.00000000000000	0.00000000000000	
7.73164300000000	54.49955000000000	781.31628799999999	58.73251400000000	0.33126300000000	0.00000000000000	0.11764500000000	0.00000000000000	0.00000000000000	0.00000000000000	0.00000000000000	0.00000000000000	0.00000000000000	0.00000000000000	24.86437900000000	0.00000000000000	0.00000000000000	0.00000000000000	0.00000000000000	
7.73330500000000	53.73465000000000	782.99342700000000	58.90610000000000	0.33024500000000	0.00000000000000	0.11762100000000	0.00000000000000	0.00000000000000	0.00000000000000	0.00000000000000	0.00000000000000	0.00000000000000	0.00000000000000	25.01062500000000	0.00000000000000	0.00000000000000	0.00000000000000	0.00000000000000	
7.73497600000000	52.97999500000000	784.53220699999997	59.07929400000000	0.32925000000000	0.00000000000000	0.11759700000000	0.00000000000000	0.00000000000000	0.00000000000000	0.00000000000000	0.00000000000000	0.00000000000000	0.00000000000000	25.15681300000000	0.00000000000000	0.00000000000000	0.00000000000000	0.00000000000000	
7.73664400000000	52.23585200000000	785.93120499999998	59.25124700000000	0.32827700000000	0.00000000000000	0.11757300000000	0.00000000000000	0.00000000000000	0.00000000000000	0.00000000000000	0.00000000000000	0.00000000000000	0.00000000000000	25.30235600000000	0.00000000000000	0.00000000000000	0.00000000000000	0.00000000000000	
7.73831200000000	51.50241000000000	787.18922499999996	59.42104700000000	0.32732400000000	0.00000000000000	0.11754900000000	0.00000000000000	0.00000000000000	0.00000000000000	0.00000000000000	0.00000000000000	0.00000000000000	0.00000000000000	25.44663100000000	0.00000000000000	0.00000000000000	0.00000000000000	0.00000000000000	
7.73997100000000	50.77978700000000	788.30530699999997	59.58773100000000	0.32639000000000	0.00000000000000	0.11752400000000	0.00000000000000	0.00000000000000	0.00000000000000	0.00000000000000	0.00000000000000	0.00000000000000	0.00000000000000	25.58898900000000	0.00000000000000	0.00000000000000	0.00000000000000	0.00000000000000	
7.74164400000000	50.06802900000000	789.27874499999996	59.75028700000000	0.32547400000000	0.00000000000000	0.11749900000000	0.00000000000000	0.00000000000000	0.00000000000000	0.00000000000000	0.00000000000000	0.00000000000000	0.00000000000000	25.72875600000000	0.00000000000000	0.00000000000000	0.00000000000000	0.00000000000000	
7.74331200000000	49.36711900000000	790.10908900000004	59.90766800000000	0.32457400000000	0.00000000000000	0.11747400000000	0.00000000000000	0.00000000000000	0.00000000000000	0.00000000000000	0.00000000000000	0.00000000000000	0.00000000000000	25.86524100000000	0.00000000000000	0.00000000000000	0.00000000000000	0.00000000000000	
7.74498000000000	48.67698100000000	790.79616099999998	60.05879800000000	0.32368900000000	0.00000000000000	0.11744800000000	0.00000000000000	0.00000000000000	0.00000000000000	0.00000000000000	0.00000000000000	0.00000000000000	0.00000000000000	25.99773800000000	0.00000000000000	0.00000000000000	0.00000000000000	0.00000000000000	
7.74663800000000	47.99748100000000	791.34005300000001	60.20258000000000	0.32281700000000	0.00000000000000	0.11742200000000	0.00000000000000	0.00000000000000	0.00000000000000	0.00000000000000	0.00000000000000	0.00000000000000	0.00000000000000	26.12553500000000	0.00000000000000	0.00000000000000	0.00000000000000	0.00000000000000	
